<?xml version="1.0" encoding="UTF-8"?>
<svg width="388px" height="285px" viewBox="0 0 388 285" version="1.1" xmlns="http://www.w3.org/2000/svg" xmlns:xlink="http://www.w3.org/1999/xlink">
    <title>he</title>
    <g id="Logo" stroke="none" stroke-width="1" fill="none" fill-rule="evenodd">
        <g id="编组" transform="translate(-128.000000, -129.000000)" fill="#FFFFFF" fill-rule="nonzero">
            <path d="M277.75,414 C308.35,414 351.85,364.8 351.85,333 C351.85,326.7 349.45,321 341.35,321 C334.45,321 331.15,327 331.15,335.1 C331.15,341.1 322.75,367.8 299.95,367.8 C291.55,367.8 286.15,357 287.05,342.6 C287.05,309.3 298.45,298.2 298.45,280.5 C298.45,258.9 251.95,245.7 235.15,264.9 C227.05,274.2 211.45,297.6 195.85,333.3 C189.55,349.2 176.35,356.7 177.25,342.6 C180.55,318.3 198.25,172.8 201.85,165.9 C203.95,162.3 205.15,158.7 205.15,155.1 C205.15,130.8 152.05,117.3 146.05,142.8 C140.05,162.9 124.15,311.1 130.15,368.7 C132.55,398.1 141.55,414 172.75,414 C205.45,414 222.55,350.1 231.25,308.1 C231.25,317.4 230.65,328.5 230.65,339.6 C230.65,375.3 235.75,414 277.75,414 Z M413.65,414 C483.25,414 515.65,355.8 515.65,333 C515.65,326.7 512.95,321 504.85,321 C497.95,321 494.65,327 494.65,335.1 C494.65,341.1 479.65,371.1 443.35,371.1 C428.65,371.1 410.95,364.2 400.15,352.5 C430.15,349.2 462.25,336.3 467.65,306.3 C472.45,281.1 448.15,252.6 407.35,252.6 C361.75,252.6 326.05,294.9 326.05,339 C326.05,381.9 364.15,414 413.65,414 Z M391.75,339.9 C388.15,332.7 386.65,325.2 386.65,317.1 C386.65,293.7 400.75,272.4 416.65,274.8 C422.35,275.7 424.75,280.5 424.75,287.4 C424.75,305.4 408.55,335.1 391.75,339.9 Z" id="he"></path>
        </g>
    </g>
</svg>